# xmcd
#
# Track frame offsets:
# 180
# 16360
# 35440
# 52775
# 72055
# 89145
# 109605
# 130785
# 152845
#
# Disc length: 2287 seconds
#
#
# Revision: 4
# Processed by: cddbd v1.5.1PL2 Copyright (c) Steve Scherf et al.
# Submitted via: FreeRIP 2.945 
#
DISCID=6c08ed09
DTITLE=Cheb Mami - Let Me Rai
DYEAR=1990
DGENRE=Ethnic
TTITLE0=Yo Yo
TTITLE1=Haoulou
TTITLE2=Let Me Cry
TTITLE3=Douha Alia
TTITLE4=Fatma
TTITLE5=Rah Eddani
TTITLE6=Khalihoum
TTITLE7=Maandi
TTITLE8=Manimane
EXTD=L.A. YEAR: 1990
EXTT0=
EXTT1=
EXTT2=
EXTT3=
EXTT4=
EXTT5=
EXTT6=
EXTT7=
EXTT8=
PLAYORDER=
